<?xml version="1.0" encoding="UTF-8" standalone="no"?>
<!-- Created with Inkscape (http://www.inkscape.org/) -->

<svg
   xmlns:dc="http://purl.org/dc/elements/1.1/"
   xmlns:cc="http://creativecommons.org/ns#"
   xmlns:rdf="http://www.w3.org/1999/02/22-rdf-syntax-ns#"
   xmlns:svg="http://www.w3.org/2000/svg"
   xmlns="http://www.w3.org/2000/svg"
   xmlns:xlink="http://www.w3.org/1999/xlink"
   xmlns:sodipodi="http://sodipodi.sourceforge.net/DTD/sodipodi-0.dtd"
   xmlns:inkscape="http://www.inkscape.org/namespaces/inkscape"
   width="210mm"
   height="297mm"
   viewBox="0 0 744.09448819 1052.3622047"
   id="svg2"
   version="1.1"
   inkscape:version="0.91 r13725"
   sodipodi:docname="icons.svg">
  <title
     id="title4684">Icons</title>
  <defs
     id="defs4">
    <linearGradient
       inkscape:collect="always"
       id="linearGradient5538">
      <stop
         style="stop-color:#000000;stop-opacity:1;"
         offset="0"
         id="stop5540" />
      <stop
         style="stop-color:#000000;stop-opacity:0;"
         offset="1"
         id="stop5542" />
    </linearGradient>
    <linearGradient
       inkscape:collect="always"
       xlink:href="#linearGradient5538"
       id="linearGradient5544"
       x1="216.0275"
       y1="520.4942"
       x2="295.81998"
       y2="520.4942"
       gradientUnits="userSpaceOnUse" />
  </defs>
  <sodipodi:namedview
     id="base"
     pagecolor="#ffffff"
     bordercolor="#666666"
     borderopacity="1.0"
     inkscape:pageopacity="0.0"
     inkscape:pageshadow="2"
     inkscape:zoom="3.959798"
     inkscape:cx="431.2007"
     inkscape:cy="537.57048"
     inkscape:document-units="px"
     inkscape:current-layer="layer1"
     showgrid="true"
     inkscape:window-width="1920"
     inkscape:window-height="1017"
     inkscape:window-x="-8"
     inkscape:window-y="-8"
     inkscape:window-maximized="1"
     showguides="true"
     objecttolerance="10000"
     guidetolerance="10000"
     inkscape:snap-path-mask="true"
     inkscape:snap-path-clip="true"
     inkscape:snap-tangential="true"
     inkscape:snap-perpendicular="true">
    <inkscape:grid
       type="xygrid"
       id="grid5691"
       dotted="false" />
  </sodipodi:namedview>
  <metadata
     id="metadata7">
    <rdf:RDF>
      <cc:Work
         rdf:about="">
        <dc:format>image/svg+xml</dc:format>
        <dc:type
           rdf:resource="http://purl.org/dc/dcmitype/StillImage" />
        <dc:title>Icons</dc:title>
      </cc:Work>
    </rdf:RDF>
  </metadata>
  <g
     inkscape:label="Layer 1"
     inkscape:groupmode="layer"
     id="layer1">
    <path
       inkscape:connector-curvature="0"
       style="display:inline;opacity:1;fill:#ffffff;fill-opacity:1;stroke:#000000;stroke-width:8;stroke-linecap:round;stroke-linejoin:round;stroke-miterlimit:4;stroke-dasharray:none;stroke-dashoffset:0;stroke-opacity:1"
       d="m 66.2827,201.35673 a 69.312302,80.413597 75.8 0 1 26.35223,-21.194 48.432705,48.432705 0 0 1 36.49053,-47.35536 48.432705,48.432705 0 0 1 4.07436,-0.81741 48.432705,48.432705 0 0 0 -42.31142,-9.33564 48.432705,48.432705 0 0 0 -35.0712,58.83247 48.432705,48.432705 0 0 0 10.4655,19.86994 z"
       id="path4207-49" />
    <path
       inkscape:connector-curvature="0"
       style="display:inline;opacity:1;fill:#ffffff;fill-opacity:1;stroke:#000000;stroke-width:5.52567911;stroke-linecap:round;stroke-linejoin:round;stroke-miterlimit:4;stroke-dasharray:none;stroke-dashoffset:0;stroke-opacity:1"
       d="m 87.00492,203.68623 a 45.463954,58.487625 19.154898 0 1 14.93421,-19.47441 28.522446,39.235759 5.8 0 1 20.13987,-41.42203 28.522446,39.235759 5.8 0 1 2.38275,-1.03669 28.522446,39.235759 5.8 0 0 -25.27856,-3.54254 28.522446,39.235759 5.8 0 0 -18.95721,50.50265 28.522446,39.235759 5.8 0 0 6.77894,14.97302 z"
       id="path4207-4-44" />
    <ellipse
       style="display:inline;opacity:1;fill:#ffffff;fill-opacity:1;stroke:#000000;stroke-width:9.25296974;stroke-linecap:round;stroke-linejoin:round;stroke-miterlimit:4;stroke-dasharray:none;stroke-dashoffset:0;stroke-opacity:1"
       id="path4189-8"
       cx="-34.30798"
       cy="-200.97209"
       rx="21.202581"
       ry="22.407274"
       transform="matrix(-0.96944535,0.24530739,-0.24530739,-0.96944535,0,0)" />
    <path
       style="display:inline;fill:none;fill-rule:evenodd;stroke:#000000;stroke-width:9.19999981;stroke-linecap:butt;stroke-linejoin:round;stroke-miterlimit:4;stroke-dasharray:none;stroke-opacity:1"
       d="m 65.12815,199.15497 38.9481,-17.44875 48.29565,106.56199 -20.56461,9.34755 z"
       id="path4272"
       inkscape:connector-curvature="0" />
    <path
       style="display:inline;opacity:1;fill:#ffffff;fill-opacity:1;stroke:#000000;stroke-width:9.19999981;stroke-linecap:round;stroke-linejoin:round;stroke-miterlimit:4;stroke-dasharray:none;stroke-dashoffset:0;stroke-opacity:1"
       id="path4274"
       d="m 84.19846,127.14373 c -0.85661,1.07993 -1.69623,2.16055 -2.36704,3.36746 -0.69853,1.21725 -0.96693,2.57558 -1.20616,3.93779 -0.20374,1.0773 -0.2888,2.17102 -0.33538,3.26483 -0.0362,0.91889 0.22383,1.75217 0.62618,2.56428 0.36992,0.70684 0.93886,1.24293 1.68141,1.52929 0.67013,0.2059 1.37409,0.22028 2.06896,0.22949 0.68134,-7.4e-4 1.36268,-0.004 2.04402,-0.007 0.87835,-0.0374 1.75137,-0.17791 2.63123,-0.23835 0.95621,-0.0606 1.91478,-0.0689 2.87259,-0.0728 1.09339,-0.01 2.17744,0.21432 3.24107,0.44928 1.46762,0.35585 2.88352,0.88758 4.27717,1.4625 1.28413,0.56072 2.39417,1.39631 3.44914,2.30277 0.95206,0.77925 1.69119,1.75278 2.4432,2.71496 0.65239,0.85192 1.26783,1.72312 1.69866,2.70893 0.3221,0.58223 0.52215,1.19994 0.62175,1.85482 0.0402,0.40477 0.024,0.20199 0.0487,0.60832 0,0 -4.1095,2.12029 -4.1095,2.12029 l 0,0 c -0.0156,-0.38501 -0.005,-0.19378 -0.0318,-0.57371 -0.0721,-0.62125 -0.24707,-1.20388 -0.54187,-1.7592 -0.3896,-0.96228 -0.99168,-1.79491 -1.61969,-2.61638 -0.72652,-0.94426 -1.45709,-1.88536 -2.39081,-2.63954 -1.01627,-0.87695 -2.09846,-1.67371 -3.34681,-2.1937 -1.38117,-0.55975 -2.78679,-1.07316 -4.24863,-1.38068 -1.05668,-0.20491 -2.12401,-0.39481 -3.20538,-0.35545 -0.9512,0.0103 -1.90318,0.0222 -2.85192,0.0982 -0.88898,0.0792 -1.7737,0.22855 -2.66782,0.22312 -0.68573,0.004 -1.37168,0.0168 -2.05729,-0.003 -0.7364,-0.0326 -1.47932,-0.0935 -2.16655,-0.38391 -0.79429,-0.40538 -1.41938,-1.00634 -1.83116,-1.80617 -0.44086,-0.8761 -0.74453,-1.77297 -0.74337,-2.76707 0.0554,-1.11557 0.14934,-2.23055 0.3325,-3.33315 0.26933,-1.39346 0.4728,-2.81196 1.17164,-4.07596 0.62352,-1.22374 1.41888,-2.32011 2.27399,-3.39214 0,0 4.23899,-1.83843 4.23899,-1.83843 z"
       inkscape:connector-curvature="0" />
    <path
       inkscape:connector-curvature="0"
       style="display:inline;opacity:1;fill:#007acd;fill-opacity:1;stroke:none;stroke-width:8;stroke-linecap:round;stroke-linejoin:round;stroke-miterlimit:4;stroke-dasharray:none;stroke-dashoffset:0;stroke-opacity:1"
       d="m 169.8418,183.95435 a 69.312302,80.413597 75.8 0 1 26.35223,-21.194 48.432705,48.432705 0 0 1 36.49053,-47.35536 48.432705,48.432705 0 0 1 4.07436,-0.81741 48.432705,48.432705 0 0 0 -42.31142,-9.33564 48.432705,48.432705 0 0 0 -35.0712,58.83247 48.432705,48.432705 0 0 0 10.4655,19.86994 z"
       id="path4207-49-4" />
    <path
       inkscape:connector-curvature="0"
       style="display:inline;opacity:1;fill:#007acd;fill-opacity:1;stroke:none;stroke-width:5.52567911;stroke-linecap:round;stroke-linejoin:round;stroke-miterlimit:4;stroke-dasharray:none;stroke-dashoffset:0;stroke-opacity:1"
       d="m 190.56402,186.28385 a 45.463954,58.487625 19.154898 0 1 14.93421,-19.47441 28.522446,39.235759 5.8 0 1 20.13987,-41.42203 28.522446,39.235759 5.8 0 1 2.38275,-1.03669 28.522446,39.235759 5.8 0 0 -25.27856,-3.54254 28.522446,39.235759 5.8 0 0 -18.95721,50.50265 28.522446,39.235759 5.8 0 0 6.77894,14.97302 z"
       id="path4207-4-44-3" />
    <ellipse
       style="display:inline;opacity:1;fill:#007acd;fill-opacity:1;stroke:none;stroke-width:9.25296974;stroke-linecap:round;stroke-linejoin:round;stroke-miterlimit:4;stroke-dasharray:none;stroke-dashoffset:0;stroke-opacity:1"
       id="path4189-8-7"
       cx="-138.97186"
       cy="-209.50523"
       rx="21.202581"
       ry="22.407274"
       transform="matrix(-0.96944535,0.24530739,-0.24530739,-0.96944535,0,0)" />
    <path
       style="display:inline;fill:#007acd;fill-opacity:1;fill-rule:evenodd;stroke:none;stroke-width:9.19999981;stroke-linecap:butt;stroke-linejoin:round;stroke-miterlimit:4;stroke-dasharray:none;stroke-opacity:1"
       d="m 168.68725,181.75259 38.9481,-17.44875 48.29565,106.56199 -20.56461,9.34755 z"
       id="path4272-7"
       inkscape:connector-curvature="0" />
    <path
       style="display:inline;opacity:1;fill:#007acd;fill-opacity:1;stroke:none;stroke-width:9.19999981;stroke-linecap:round;stroke-linejoin:round;stroke-miterlimit:4;stroke-dasharray:none;stroke-dashoffset:0;stroke-opacity:1"
       id="path4274-4"
       d="m 187.75756,109.74135 c -0.85661,1.07993 -1.69623,2.16055 -2.36704,3.36746 -0.69853,1.21725 -0.96693,2.57558 -1.20616,3.93779 -0.20374,1.0773 -0.2888,2.17102 -0.33538,3.26483 -0.0362,0.91889 0.22383,1.75217 0.62618,2.56428 0.36992,0.70684 0.93886,1.24293 1.68141,1.52929 0.67013,0.2059 1.37409,0.22028 2.06896,0.22949 0.68134,-7.4e-4 1.36268,-0.004 2.04402,-0.007 0.87835,-0.0374 1.75137,-0.17791 2.63123,-0.23835 0.95621,-0.0606 1.91478,-0.0689 2.87259,-0.0728 1.09339,-0.01 2.17744,0.21432 3.24107,0.44928 1.46762,0.35585 2.88352,0.88758 4.27717,1.4625 1.28413,0.56072 2.39417,1.39631 3.44914,2.30277 0.95206,0.77925 1.69119,1.75278 2.4432,2.71496 0.65239,0.85192 1.26783,1.72312 1.69866,2.70893 0.3221,0.58223 0.52215,1.19994 0.62175,1.85482 0.0402,0.40477 0.024,0.20199 0.0487,0.60832 0,0 -4.1095,2.12029 -4.1095,2.12029 l 0,0 c -0.0156,-0.38501 -0.005,-0.19378 -0.0318,-0.57371 -0.0721,-0.62125 -0.24707,-1.20388 -0.54187,-1.7592 -0.3896,-0.96228 -0.99168,-1.79491 -1.61969,-2.61638 -0.72652,-0.94426 -1.45709,-1.88536 -2.39081,-2.63954 -1.01627,-0.87695 -2.09846,-1.67371 -3.34681,-2.1937 -1.38117,-0.55975 -2.78679,-1.07316 -4.24863,-1.38068 -1.05668,-0.20491 -2.12401,-0.39481 -3.20538,-0.35545 -0.9512,0.0103 -1.90318,0.0222 -2.85192,0.0982 -0.88898,0.0792 -1.7737,0.22855 -2.66782,0.22312 -0.68573,0.004 -1.37168,0.0168 -2.05729,-0.003 -0.7364,-0.0326 -1.47932,-0.0935 -2.16655,-0.38391 -0.79429,-0.40538 -1.41938,-1.00634 -1.83116,-1.80617 -0.44086,-0.8761 -0.74453,-1.77297 -0.74337,-2.76707 0.0554,-1.11557 0.14934,-2.23055 0.3325,-3.33315 0.26933,-1.39346 0.4728,-2.81196 1.17164,-4.07596 0.62352,-1.22374 1.41888,-2.32011 2.27399,-3.39214 0,0 4.23899,-1.83843 4.23899,-1.83843 z"
       inkscape:connector-curvature="0" />
    <path
       inkscape:connector-curvature="0"
       style="display:inline;opacity:1;fill:#ac5530;fill-opacity:1;stroke:none;stroke-width:8;stroke-linecap:round;stroke-linejoin:round;stroke-miterlimit:4;stroke-dasharray:none;stroke-dashoffset:0;stroke-opacity:1"
       d="m 277.63551,168.05195 a 69.312302,80.413597 75.8 0 1 26.35223,-21.194 48.432705,48.432705 0 0 1 36.49053,-47.35536 48.432705,48.432705 0 0 1 4.07436,-0.81741 48.432705,48.432705 0 0 0 -42.31142,-9.33564 48.432705,48.432705 0 0 0 -35.0712,58.83247 48.432705,48.432705 0 0 0 10.4655,19.86994 z"
       id="path4207-49-4-7" />
    <path
       inkscape:connector-curvature="0"
       style="display:inline;opacity:1;fill:#ac5530;fill-opacity:1;stroke:none;stroke-width:5.52567911;stroke-linecap:round;stroke-linejoin:round;stroke-miterlimit:4;stroke-dasharray:none;stroke-dashoffset:0;stroke-opacity:1"
       d="m 298.35773,170.38145 a 45.463954,58.487625 19.154898 0 1 14.93421,-19.47441 28.522446,39.235759 5.8 0 1 20.13987,-41.42203 28.522446,39.235759 5.8 0 1 2.38275,-1.03669 28.522446,39.235759 5.8 0 0 -25.27856,-3.54254 28.522446,39.235759 5.8 0 0 -18.95721,50.50265 28.522446,39.235759 5.8 0 0 6.77894,14.97302 z"
       id="path4207-4-44-3-8" />
    <ellipse
       style="display:inline;opacity:1;fill:#ac5530;fill-opacity:1;stroke:none;stroke-width:9.25296974;stroke-linecap:round;stroke-linejoin:round;stroke-miterlimit:4;stroke-dasharray:none;stroke-dashoffset:0;stroke-opacity:1"
       id="path4189-8-7-1"
       cx="-247.37292"
       cy="-220.53136"
       rx="21.202581"
       ry="22.407274"
       transform="matrix(-0.96944535,0.24530739,-0.24530739,-0.96944535,0,0)" />
    <path
       style="display:inline;fill:#ac5530;fill-opacity:1;fill-rule:evenodd;stroke:none;stroke-width:9.19999981;stroke-linecap:butt;stroke-linejoin:round;stroke-miterlimit:4;stroke-dasharray:none;stroke-opacity:1"
       d="m 276.48096,165.85019 38.9481,-17.44875 48.29565,106.56199 -20.56461,9.34755 z"
       id="path4272-7-0"
       inkscape:connector-curvature="0" />
    <path
       style="display:inline;opacity:1;fill:#ac5530;fill-opacity:1;stroke:none;stroke-width:9.19999981;stroke-linecap:round;stroke-linejoin:round;stroke-miterlimit:4;stroke-dasharray:none;stroke-dashoffset:0;stroke-opacity:1"
       id="path4274-4-3"
       d="m 295.55127,93.83895 c -0.85661,1.07993 -1.69623,2.16055 -2.36704,3.36746 -0.69853,1.21725 -0.96693,2.57558 -1.20616,3.93779 -0.20374,1.0773 -0.2888,2.17102 -0.33538,3.26483 -0.0362,0.91889 0.22383,1.75217 0.62618,2.56428 0.36992,0.70684 0.93886,1.24293 1.68141,1.52929 0.67013,0.2059 1.37409,0.22028 2.06896,0.22949 0.68134,-7.4e-4 1.36268,-0.004 2.04402,-0.007 0.87835,-0.0374 1.75137,-0.17791 2.63123,-0.23835 0.95621,-0.0606 1.91478,-0.0689 2.87259,-0.0728 1.09339,-0.01 2.17744,0.21432 3.24107,0.44928 1.46762,0.35585 2.88352,0.88758 4.27717,1.4625 1.28413,0.56072 2.39417,1.39631 3.44914,2.30277 0.95206,0.77925 1.69119,1.75278 2.4432,2.71496 0.65239,0.85192 1.26783,1.72312 1.69866,2.70893 0.3221,0.58223 0.52215,1.19994 0.62175,1.85482 0.0402,0.40477 0.024,0.20199 0.0487,0.60832 0,0 -4.1095,2.12029 -4.1095,2.12029 l 0,0 c -0.0156,-0.38501 -0.005,-0.19378 -0.0318,-0.57371 -0.0721,-0.62125 -0.24707,-1.20388 -0.54187,-1.7592 -0.3896,-0.96228 -0.99168,-1.79491 -1.61969,-2.61638 -0.72652,-0.94426 -1.45709,-1.88536 -2.39081,-2.63954 -1.01627,-0.87695 -2.09846,-1.67371 -3.34681,-2.1937 -1.38117,-0.55975 -2.78679,-1.07316 -4.24863,-1.38068 -1.05668,-0.20491 -2.12401,-0.39481 -3.20538,-0.35545 -0.9512,0.0103 -1.90318,0.0222 -2.85192,0.0982 -0.88898,0.0792 -1.7737,0.22855 -2.66782,0.22312 -0.68573,0.004 -1.37168,0.0168 -2.05729,-0.003 -0.7364,-0.0326 -1.47932,-0.0935 -2.16655,-0.38391 -0.79429,-0.40538 -1.41938,-1.00634 -1.83116,-1.80617 -0.44086,-0.8761 -0.74453,-1.77297 -0.74337,-2.76707 0.0554,-1.11557 0.14934,-2.23055 0.3325,-3.33315 0.26933,-1.39346 0.4728,-2.81196 1.17164,-4.07596 0.62352,-1.22374 1.41888,-2.32011 2.27399,-3.39214 0,0 4.23899,-1.83843 4.23899,-1.83843 z"
       inkscape:connector-curvature="0" />
    <path
       inkscape:connector-curvature="0"
       style="display:inline;opacity:1;fill:#ffffff;fill-opacity:1;stroke:#000000;stroke-width:8;stroke-linecap:round;stroke-linejoin:round;stroke-miterlimit:4;stroke-dasharray:none;stroke-dashoffset:0;stroke-opacity:1"
       d="m 278.58488,166.50559 a 69.312302,80.413597 75.8 0 1 26.35223,-21.194 48.432705,48.432705 0 0 1 36.49053,-47.35536 48.432705,48.432705 0 0 1 4.07436,-0.81741 48.432705,48.432705 0 0 0 -42.31142,-9.33564 48.432705,48.432705 0 0 0 -35.0712,58.83247 48.432705,48.432705 0 0 0 10.4655,19.86994 z"
       id="path4207-49-0" />
    <path
       inkscape:connector-curvature="0"
       style="display:inline;opacity:1;fill:#ffffff;fill-opacity:1;stroke:#000000;stroke-width:5.52567911;stroke-linecap:round;stroke-linejoin:round;stroke-miterlimit:4;stroke-dasharray:none;stroke-dashoffset:0;stroke-opacity:1"
       d="m 299.3071,168.83509 a 45.463954,58.487625 19.154898 0 1 14.93421,-19.47441 28.522446,39.235759 5.8 0 1 20.13987,-41.42203 28.522446,39.235759 5.8 0 1 2.38275,-1.03669 28.522446,39.235759 5.8 0 0 -25.27856,-3.54254 28.522446,39.235759 5.8 0 0 -18.95721,50.50265 28.522446,39.235759 5.8 0 0 6.77894,14.97302 z"
       id="path4207-4-44-2" />
    <path
       style="display:inline;fill:none;fill-rule:evenodd;stroke:#000000;stroke-width:9.19999981;stroke-linecap:butt;stroke-linejoin:round;stroke-miterlimit:4;stroke-dasharray:none;stroke-opacity:1"
       d="m 277.43033,164.30383 38.9481,-17.44875 48.29565,106.56199 -20.56461,9.34755 z"
       id="path4272-0"
       inkscape:connector-curvature="0" />
    <path
       style="display:inline;opacity:1;fill:#ffffff;fill-opacity:1;stroke:#000000;stroke-width:9.19999981;stroke-linecap:round;stroke-linejoin:round;stroke-miterlimit:4;stroke-dasharray:none;stroke-dashoffset:0;stroke-opacity:1"
       id="path4274-2"
       d="m 296.50064,92.29259 c -0.85661,1.07993 -1.69623,2.16055 -2.36704,3.36746 -0.69853,1.21725 -0.96693,2.57558 -1.20616,3.93779 -0.20374,1.0773 -0.2888,2.17102 -0.33538,3.26483 -0.0362,0.91889 0.22383,1.75217 0.62618,2.56428 0.36992,0.70684 0.93886,1.24293 1.68141,1.52929 0.67013,0.2059 1.37409,0.22028 2.06896,0.22949 0.68134,-7.4e-4 1.36268,-0.004 2.04402,-0.007 0.87835,-0.0374 1.75137,-0.17791 2.63123,-0.23835 0.95621,-0.0606 1.91478,-0.0689 2.87259,-0.0728 1.09339,-0.01 2.17744,0.21432 3.24107,0.44928 1.46762,0.35585 2.88352,0.88758 4.27717,1.4625 1.28413,0.56072 2.39417,1.39631 3.44914,2.30277 0.95206,0.77925 1.69119,1.75278 2.4432,2.71496 0.65239,0.85192 1.26783,1.72312 1.69866,2.70893 0.3221,0.58223 0.52215,1.19994 0.62175,1.85482 0.0402,0.40477 0.024,0.20199 0.0487,0.60832 0,0 -4.1095,2.12029 -4.1095,2.12029 l 0,0 c -0.0156,-0.38501 -0.005,-0.19378 -0.0318,-0.57371 -0.0721,-0.62125 -0.24707,-1.20388 -0.54187,-1.7592 -0.3896,-0.96228 -0.99168,-1.79491 -1.61969,-2.61638 -0.72652,-0.94426 -1.45709,-1.88536 -2.39081,-2.63954 -1.01627,-0.87695 -2.09846,-1.67371 -3.34681,-2.1937 -1.38117,-0.55975 -2.78679,-1.07316 -4.24863,-1.38068 -1.05668,-0.20491 -2.12401,-0.39481 -3.20538,-0.35545 -0.9512,0.0103 -1.90318,0.0222 -2.85192,0.0982 -0.88898,0.0792 -1.7737,0.22855 -2.66782,0.22312 -0.68573,0.004 -1.37168,0.0168 -2.05729,-0.003 -0.7364,-0.0326 -1.47932,-0.0935 -2.16655,-0.38391 -0.79429,-0.40538 -1.41938,-1.00634 -1.83116,-1.80617 -0.44086,-0.8761 -0.74453,-1.77297 -0.74337,-2.76707 0.0554,-1.11557 0.14934,-2.23055 0.3325,-3.33315 0.26933,-1.39346 0.4728,-2.81196 1.17164,-4.07596 0.62352,-1.22374 1.41888,-2.32011 2.27399,-3.39214 0,0 4.23899,-1.83843 4.23899,-1.83843 z"
       inkscape:connector-curvature="0" />
    <path
       inkscape:connector-curvature="0"
       style="display:inline;opacity:1;fill:#fcbe6e;fill-opacity:1;stroke:none;stroke-width:8;stroke-linecap:round;stroke-linejoin:round;stroke-miterlimit:4;stroke-dasharray:none;stroke-dashoffset:0;stroke-opacity:1"
       d="m 279.43192,165.43451 a 69.312302,80.413597 75.8 0 1 26.35223,-21.194 48.432705,48.432705 0 0 1 36.49053,-47.35536 48.432705,48.432705 0 0 1 4.07436,-0.81741 48.432705,48.432705 0 0 0 -42.31142,-9.33564 48.432705,48.432705 0 0 0 -35.0712,58.83247 48.432705,48.432705 0 0 0 10.4655,19.86994 z"
       id="path4207-49-4-2" />
    <path
       inkscape:connector-curvature="0"
       style="display:inline;opacity:1;fill:#fcbe6e;fill-opacity:1;stroke:none;stroke-width:5.52567911;stroke-linecap:round;stroke-linejoin:round;stroke-miterlimit:4;stroke-dasharray:none;stroke-dashoffset:0;stroke-opacity:1"
       d="m 300.15414,167.76401 a 45.463954,58.487625 19.154898 0 1 14.93421,-19.47441 28.522446,39.235759 5.8 0 1 20.13987,-41.42203 28.522446,39.235759 5.8 0 1 2.38275,-1.03669 28.522446,39.235759 5.8 0 0 -25.27856,-3.54254 28.522446,39.235759 5.8 0 0 -18.95721,50.50265 28.522446,39.235759 5.8 0 0 6.77894,14.97302 z"
       id="path4207-4-44-3-9" />
    <ellipse
       style="display:inline;opacity:1;fill:#fcbe6e;fill-opacity:1;stroke:none;stroke-width:9.25296974;stroke-linecap:round;stroke-linejoin:round;stroke-miterlimit:4;stroke-dasharray:none;stroke-dashoffset:0;stroke-opacity:1"
       id="path4189-8-7-9"
       cx="-249.83301"
       cy="-218.13243"
       rx="21.202581"
       ry="22.407274"
       transform="matrix(-0.96944535,0.24530739,-0.24530739,-0.96944535,0,0)" />
    <path
       style="display:inline;opacity:1;fill:#fcbe6e;fill-opacity:1;stroke:none;stroke-width:9.19999981;stroke-linecap:round;stroke-linejoin:round;stroke-miterlimit:4;stroke-dasharray:none;stroke-dashoffset:0;stroke-opacity:1"
       id="path4274-4-8"
       d="m 297.34768,91.22151 c -0.85661,1.07993 -1.69623,2.16055 -2.36704,3.36746 -0.69853,1.21725 -0.96693,2.57558 -1.20616,3.93779 -0.20374,1.0773 -0.2888,2.17102 -0.33538,3.26483 -0.0362,0.91889 0.22383,1.75217 0.62618,2.56428 0.36992,0.70684 0.93886,1.24293 1.68141,1.52929 0.67013,0.2059 1.37409,0.22028 2.06896,0.22949 0.68134,-7.4e-4 1.36268,-0.004 2.04402,-0.007 0.87835,-0.0374 1.75137,-0.17791 2.63123,-0.23835 0.95621,-0.0606 1.91478,-0.0689 2.87259,-0.0728 1.09339,-0.01 2.17744,0.21432 3.24107,0.44928 1.46762,0.35585 2.88352,0.88758 4.27717,1.4625 1.28413,0.56072 2.39417,1.39631 3.44914,2.30277 0.95206,0.77925 1.69119,1.75278 2.4432,2.71496 0.65239,0.85192 1.26783,1.72312 1.69866,2.70893 0.3221,0.58223 0.52215,1.19994 0.62175,1.85482 0.0402,0.40477 0.024,0.20199 0.0487,0.60832 0,0 -4.1095,2.12029 -4.1095,2.12029 l 0,0 c -0.0156,-0.38501 -0.005,-0.19378 -0.0318,-0.57371 -0.0721,-0.62125 -0.24707,-1.20388 -0.54187,-1.7592 -0.3896,-0.96228 -0.99168,-1.79491 -1.61969,-2.61638 -0.72652,-0.94426 -1.45709,-1.88536 -2.39081,-2.63954 -1.01627,-0.87695 -2.09846,-1.67371 -3.34681,-2.1937 -1.38117,-0.55975 -2.78679,-1.07316 -4.24863,-1.38068 -1.05668,-0.20491 -2.12401,-0.39481 -3.20538,-0.35545 -0.9512,0.0103 -1.90318,0.0222 -2.85192,0.0982 -0.88898,0.0792 -1.7737,0.22855 -2.66782,0.22312 -0.68573,0.004 -1.37168,0.0168 -2.05729,-0.003 -0.7364,-0.0326 -1.47932,-0.0935 -2.16655,-0.38391 -0.79429,-0.40538 -1.41938,-1.00634 -1.83116,-1.80617 -0.44086,-0.8761 -0.74453,-1.77297 -0.74337,-2.76707 0.0554,-1.11557 0.14934,-2.23055 0.3325,-3.33315 0.26933,-1.39346 0.4728,-2.81196 1.17164,-4.07596 0.62352,-1.22374 1.41888,-2.32011 2.27399,-3.39214 0,0 4.23899,-1.83843 4.23899,-1.83843 z"
       inkscape:connector-curvature="0" />
    <path
       inkscape:connector-curvature="0"
       style="display:inline;opacity:1;fill:#007acd;fill-opacity:1;stroke:none;stroke-width:8;stroke-linecap:round;stroke-linejoin:round;stroke-miterlimit:4;stroke-dasharray:none;stroke-dashoffset:0;stroke-opacity:1"
       d="m 279.43192,165.47474 a 69.312302,80.413597 75.8 0 1 26.35223,-21.194 48.432705,48.432705 0 0 1 36.49053,-47.35536 48.432705,48.432705 0 0 1 4.07436,-0.81741 48.432705,48.432705 0 0 0 -42.31142,-9.33564 48.432705,48.432705 0 0 0 -35.0712,58.83247 48.432705,48.432705 0 0 0 10.4655,19.86994 z"
       id="path4207-49-4-8" />
    <path
       inkscape:connector-curvature="0"
       style="display:inline;opacity:1;fill:#007acd;fill-opacity:1;stroke:none;stroke-width:5.52567911;stroke-linecap:round;stroke-linejoin:round;stroke-miterlimit:4;stroke-dasharray:none;stroke-dashoffset:0;stroke-opacity:1"
       d="m 300.15414,167.80424 a 45.463954,58.487625 19.154898 0 1 14.93421,-19.47441 28.522446,39.235759 5.8 0 1 20.13987,-41.42203 28.522446,39.235759 5.8 0 1 2.38275,-1.03669 28.522446,39.235759 5.8 0 0 -25.27856,-3.54254 28.522446,39.235759 5.8 0 0 -18.95721,50.50265 28.522446,39.235759 5.8 0 0 6.77894,14.97302 z"
       id="path4207-4-44-3-2" />
    <path
       style="display:inline;opacity:1;fill:#ffffff;fill-opacity:1;stroke:#000000;stroke-width:9.19999981;stroke-linecap:round;stroke-linejoin:round;stroke-miterlimit:4;stroke-dasharray:none;stroke-dashoffset:0;stroke-opacity:1"
       id="path4274-29"
       d="m 291.69593,98.5466 c -1.09458,0.66353 -2.16745,1.32749 -3.02462,2.06903 -0.89259,0.74791 -1.23555,1.58249 -1.54124,2.41946 -0.26034,0.66191 -0.36903,1.33391 -0.42855,2.00597 -0.0463,0.56458 0.28601,1.07656 0.80014,1.57554 0.47268,0.4343 1.19968,0.76368 2.14852,0.93962 0.85629,0.12651 1.75582,0.13535 2.64373,0.14101 0.87062,-4.6e-4 1.74124,-0.002 2.61186,-0.004 1.12236,-0.023 2.23792,-0.10932 3.36221,-0.14645 1.22185,-0.0372 2.44672,-0.0423 3.67062,-0.0447 1.39714,-0.006 2.78235,0.13168 4.14146,0.27605 1.87534,0.21864 3.68458,0.54534 5.4654,0.89858 1.64087,0.34452 3.05929,0.85792 4.40734,1.41487 1.21655,0.47878 2.16101,1.07694 3.12194,1.66812 0.83363,0.52343 1.62004,1.05872 2.17056,1.66442 0.41158,0.35773 0.66721,0.73726 0.79447,1.13963 0.0514,0.2487 0.0307,0.12411 0.0622,0.37376 0,0 -5.25115,1.30275 -5.25115,1.30275 l 0,0 c -0.0199,-0.23656 -0.006,-0.11906 -0.0406,-0.3525 -0.0921,-0.38171 -0.31571,-0.73968 -0.69241,-1.08088 -0.49783,-0.59125 -1.26717,-1.10283 -2.06965,-1.60756 -0.92835,-0.58017 -1.86188,-1.1584 -3.05499,-1.62178 -1.2986,-0.53881 -2.68143,-1.02836 -4.27658,-1.34785 -1.76487,-0.34392 -3.56098,-0.65937 -5.42894,-0.84831 -1.35023,-0.1259 -2.71407,-0.24258 -4.09585,-0.2184 -1.21545,0.006 -2.4319,0.0136 -3.64421,0.0603 -1.13594,0.0487 -2.26645,0.14042 -3.40896,0.13709 -0.87623,0.002 -1.75274,0.0103 -2.62882,-0.002 -0.94098,-0.02 -1.89029,-0.0574 -2.76844,-0.23588 -1.01494,-0.24907 -1.81369,-0.61831 -2.33987,-1.10974 -0.56333,-0.53829 -0.95136,-1.08935 -0.94988,-1.70014 0.0708,-0.68543 0.19083,-1.37049 0.42487,-2.04795 0.34415,-0.85617 0.60415,-1.72772 1.49713,-2.50435 0.79674,-0.75188 1.81306,-1.42551 2.90572,-2.08419 0,0 5.41662,-1.12957 5.41662,-1.12957 z"
       inkscape:connector-curvature="0" />
    <path
       inkscape:connector-curvature="0"
       style="display:inline;opacity:1;fill:#ac5530;fill-opacity:1;stroke:none;stroke-width:8;stroke-linecap:round;stroke-linejoin:round;stroke-miterlimit:4;stroke-dasharray:none;stroke-dashoffset:0;stroke-opacity:1"
       d="m 432.80473,168.67513 a 69.312302,80.413597 75.8 0 1 26.35223,-21.194 48.432705,48.432705 0 0 1 36.49053,-47.35536 48.432705,48.432705 0 0 1 4.07436,-0.81741 48.432705,48.432705 0 0 0 -42.31142,-9.33564 48.432705,48.432705 0 0 0 -35.0712,58.83247 48.432705,48.432705 0 0 0 10.4655,19.86994 z"
       id="path4207-49-4-7-6"
       inkscape:export-xdpi="360"
       inkscape:export-ydpi="360" />
    <path
       inkscape:connector-curvature="0"
       style="display:inline;opacity:1;fill:#ac5530;fill-opacity:1;stroke:none;stroke-width:5.52567911;stroke-linecap:round;stroke-linejoin:round;stroke-miterlimit:4;stroke-dasharray:none;stroke-dashoffset:0;stroke-opacity:1"
       d="m 453.52695,171.00463 a 45.463954,58.487625 19.154898 0 1 14.93421,-19.47441 28.522446,39.235759 5.8 0 1 20.13987,-41.42203 28.522446,39.235759 5.8 0 1 2.38275,-1.03669 28.522446,39.235759 5.8 0 0 -25.27856,-3.54254 28.522446,39.235759 5.8 0 0 -18.95721,50.50265 28.522446,39.235759 5.8 0 0 6.77894,14.97302 z"
       id="path4207-4-44-3-8-6"
       inkscape:export-xdpi="360"
       inkscape:export-ydpi="360" />
    <ellipse
       style="display:inline;opacity:1;fill:#ac5530;fill-opacity:1;stroke:none;stroke-width:9.25296974;stroke-linecap:round;stroke-linejoin:round;stroke-miterlimit:4;stroke-dasharray:none;stroke-dashoffset:0;stroke-opacity:1"
       id="path4189-8-7-1-8"
       cx="-397.6481"
       cy="-259.19968"
       rx="21.202581"
       ry="22.407274"
       transform="matrix(-0.96944535,0.24530739,-0.24530739,-0.96944535,0,0)"
       inkscape:export-xdpi="360"
       inkscape:export-ydpi="360" />
    <path
       style="display:inline;fill:#ac5530;fill-opacity:1;fill-rule:evenodd;stroke:none;stroke-width:9.19999981;stroke-linecap:butt;stroke-linejoin:round;stroke-miterlimit:4;stroke-dasharray:none;stroke-opacity:1"
       d="m 430.40384,166.16179 38.9481,-17.44875 48.29565,106.56199 -20.56461,9.34755 z"
       id="path4272-7-0-8"
       inkscape:connector-curvature="0"
       inkscape:export-xdpi="360"
       inkscape:export-ydpi="360" />
    <path
       style="display:inline;opacity:1;fill:#ac5530;fill-opacity:1;stroke:none;stroke-width:9.19999981;stroke-linecap:round;stroke-linejoin:round;stroke-miterlimit:4;stroke-dasharray:none;stroke-dashoffset:0;stroke-opacity:1"
       id="path4274-4-3-8"
       d="m 450.72049,94.46213 c -0.85661,1.07993 -1.69623,2.16055 -2.36704,3.36746 -0.69853,1.21725 -0.96693,2.57558 -1.20616,3.93779 -0.20374,1.0773 -0.2888,2.17102 -0.33538,3.26483 -0.0362,0.91889 0.22383,1.75217 0.62618,2.56428 0.36992,0.70684 0.93886,1.24293 1.68141,1.52929 0.67013,0.2059 1.37409,0.22028 2.06896,0.22949 0.68134,-7.4e-4 1.36268,-0.004 2.04402,-0.007 0.87835,-0.0374 1.75137,-0.17791 2.63123,-0.23835 0.95621,-0.0606 1.91478,-0.0689 2.87259,-0.0728 1.09339,-0.01 2.17744,0.21432 3.24107,0.44928 1.46762,0.35585 2.88352,0.88758 4.27717,1.4625 1.28413,0.56072 2.39417,1.39631 3.44914,2.30277 0.95206,0.77925 1.69119,1.75278 2.4432,2.71496 0.65239,0.85192 1.26783,1.72312 1.69866,2.70893 0.3221,0.58223 0.52215,1.19994 0.62175,1.85482 0.0402,0.40477 0.024,0.20199 0.0487,0.60832 0,0 -4.1095,2.12029 -4.1095,2.12029 l 0,0 c -0.0156,-0.38501 -0.005,-0.19378 -0.0318,-0.57371 -0.0721,-0.62125 -0.24707,-1.20388 -0.54187,-1.7592 -0.3896,-0.96228 -0.99168,-1.79491 -1.61969,-2.61638 -0.72652,-0.94426 -1.45709,-1.88536 -2.39081,-2.63954 -1.01627,-0.87695 -2.09846,-1.67371 -3.34681,-2.1937 -1.38117,-0.55975 -2.78679,-1.07316 -4.24863,-1.38068 -1.05668,-0.20491 -2.12401,-0.39481 -3.20538,-0.35545 -0.9512,0.0103 -1.90318,0.0222 -2.85192,0.0982 -0.88898,0.0792 -1.7737,0.22855 -2.66782,0.22312 -0.68573,0.004 -1.37168,0.0168 -2.05729,-0.003 -0.7364,-0.0326 -1.47932,-0.0935 -2.16655,-0.38391 -0.79429,-0.40538 -1.41938,-1.00634 -1.83116,-1.80617 -0.44086,-0.8761 -0.74453,-1.77297 -0.74337,-2.76707 0.0554,-1.11557 0.14934,-2.23055 0.3325,-3.33315 0.26933,-1.39346 0.4728,-2.81196 1.17164,-4.07596 0.62352,-1.22374 1.41888,-2.32011 2.27399,-3.39214 0,0 4.23899,-1.83843 4.23899,-1.83843 z"
       inkscape:connector-curvature="0"
       inkscape:export-xdpi="360"
       inkscape:export-ydpi="360" />
    <path
       inkscape:connector-curvature="0"
       style="display:inline;opacity:1;fill:#ffffff;fill-opacity:1;stroke:#000000;stroke-width:8;stroke-linecap:round;stroke-linejoin:round;stroke-miterlimit:4;stroke-dasharray:none;stroke-dashoffset:0;stroke-opacity:1"
       d="m 433.7541,167.12877 a 69.312302,80.413597 75.8 0 1 26.35223,-21.194 48.432705,48.432705 0 0 1 36.49053,-47.35536 48.432705,48.432705 0 0 1 4.07436,-0.81741 48.432705,48.432705 0 0 0 -42.31142,-9.33564 48.432705,48.432705 0 0 0 -35.0712,58.83247 48.432705,48.432705 0 0 0 10.4655,19.86994 z"
       id="path4207-49-0-7"
       inkscape:export-xdpi="360"
       inkscape:export-ydpi="360" />
    <path
       inkscape:connector-curvature="0"
       style="display:inline;opacity:1;fill:#ffffff;fill-opacity:1;stroke:#000000;stroke-width:5.52567911;stroke-linecap:round;stroke-linejoin:round;stroke-miterlimit:4;stroke-dasharray:none;stroke-dashoffset:0;stroke-opacity:1"
       d="m 454.47632,169.45827 a 45.463954,58.487625 19.154898 0 1 14.93421,-19.47441 28.522446,39.235759 5.8 0 1 20.13987,-41.42203 28.522446,39.235759 5.8 0 1 2.38275,-1.03669 28.522446,39.235759 5.8 0 0 -25.27856,-3.54254 28.522446,39.235759 5.8 0 0 -18.95721,50.50265 28.522446,39.235759 5.8 0 0 6.77894,14.97302 z"
       id="path4207-4-44-2-9"
       inkscape:export-xdpi="360"
       inkscape:export-ydpi="360" />
    <path
       style="display:inline;fill:none;fill-rule:evenodd;stroke:#000000;stroke-width:5;stroke-linecap:butt;stroke-linejoin:round;stroke-miterlimit:4;stroke-dasharray:none;stroke-opacity:1"
       d="m 431.35321,164.61543 38.9481,-17.44875 48.29565,106.56199 -20.56461,9.34755 z"
       id="path4272-0-3"
       inkscape:connector-curvature="0"
       inkscape:export-xdpi="360"
       inkscape:export-ydpi="360" />
    <path
       style="display:inline;opacity:1;fill:#ffffff;fill-opacity:1;stroke:#000000;stroke-width:9.19999981;stroke-linecap:round;stroke-linejoin:round;stroke-miterlimit:4;stroke-dasharray:none;stroke-dashoffset:0;stroke-opacity:1"
       id="path4274-2-2"
       d="m 451.66986,92.91577 c -0.85661,1.07993 -1.69623,2.16055 -2.36704,3.36746 -0.69853,1.21725 -0.96693,2.57558 -1.20616,3.93779 -0.20374,1.0773 -0.2888,2.17102 -0.33538,3.26483 -0.0362,0.91889 0.22383,1.75217 0.62618,2.56428 0.36992,0.70684 0.93886,1.24293 1.68141,1.52929 0.67013,0.2059 1.37409,0.22028 2.06896,0.22949 0.68134,-7.4e-4 1.36268,-0.004 2.04402,-0.007 0.87835,-0.0374 1.75137,-0.17791 2.63123,-0.23835 0.95621,-0.0606 1.91478,-0.0689 2.87259,-0.0728 1.09339,-0.01 2.17744,0.21432 3.24107,0.44928 1.46762,0.35585 2.88352,0.88758 4.27717,1.4625 1.28413,0.56072 2.39417,1.39631 3.44914,2.30277 0.95206,0.77925 1.69119,1.75278 2.4432,2.71496 0.65239,0.85192 1.26783,1.72312 1.69866,2.70893 0.3221,0.58223 0.52215,1.19994 0.62175,1.85482 0.0402,0.40477 0.024,0.20199 0.0487,0.60832 0,0 -4.1095,2.12029 -4.1095,2.12029 l 0,0 c -0.0156,-0.38501 -0.005,-0.19378 -0.0318,-0.57371 -0.0721,-0.62125 -0.24707,-1.20388 -0.54187,-1.7592 -0.3896,-0.96228 -0.99168,-1.79491 -1.61969,-2.61638 -0.72652,-0.94426 -1.45709,-1.88536 -2.39081,-2.63954 -1.01627,-0.87695 -2.09846,-1.67371 -3.34681,-2.1937 -1.38117,-0.55975 -2.78679,-1.07316 -4.24863,-1.38068 -1.05668,-0.20491 -2.12401,-0.39481 -3.20538,-0.35545 -0.9512,0.0103 -1.90318,0.0222 -2.85192,0.0982 -0.88898,0.0792 -1.7737,0.22855 -2.66782,0.22312 -0.68573,0.004 -1.37168,0.0168 -2.05729,-0.003 -0.7364,-0.0326 -1.47932,-0.0935 -2.16655,-0.38391 -0.79429,-0.40538 -1.41938,-1.00634 -1.83116,-1.80617 -0.44086,-0.8761 -0.74453,-1.77297 -0.74337,-2.76707 0.0554,-1.11557 0.14934,-2.23055 0.3325,-3.33315 0.26933,-1.39346 0.4728,-2.81196 1.17164,-4.07596 0.62352,-1.22374 1.41888,-2.32011 2.27399,-3.39214 0,0 4.23899,-1.83843 4.23899,-1.83843 z"
       inkscape:connector-curvature="0"
       inkscape:export-xdpi="360"
       inkscape:export-ydpi="360" />
    <path
       inkscape:connector-curvature="0"
       style="display:inline;opacity:1;fill:#fcbe6e;fill-opacity:1;stroke:none;stroke-width:8;stroke-linecap:round;stroke-linejoin:round;stroke-miterlimit:4;stroke-dasharray:none;stroke-dashoffset:0;stroke-opacity:1"
       d="m 435.26211,165.53442 c 7.04727,-8.56345 15.38118,-15.27439 25.69126,-20.67073 -0.19232,-22.30461 14.87358,-41.85628 36.49053,-47.35536 1.3458,-0.33063 2.70517,-0.60336 4.07436,-0.81741 -11.84785,-9.59893 -27.52439,-13.05782 -42.31142,-9.33564 -25.9304,6.562 -41.63207,32.90178 -35.0712,58.83247 1.88354,7.35179 6.12938,13.63479 11.12647,19.34667 z"
       id="path4207-49-4-2-5"
       sodipodi:nodetypes="ccccccc"
       inkscape:export-xdpi="360"
       inkscape:export-ydpi="360" />
    <path
       inkscape:connector-curvature="0"
       style="display:inline;opacity:1;fill:#fcbe6e;fill-opacity:1;stroke:none;stroke-width:5.52567911;stroke-linecap:round;stroke-linejoin:round;stroke-miterlimit:4;stroke-dasharray:none;stroke-dashoffset:0;stroke-opacity:1"
       d="m 455.32336,168.38719 a 45.463954,58.487625 19.154898 0 1 14.93421,-19.47441 28.522446,39.235759 5.8 0 1 20.13987,-41.42203 28.522446,39.235759 5.8 0 1 2.38275,-1.03669 28.522446,39.235759 5.8 0 0 -25.27856,-3.54254 28.522446,39.235759 5.8 0 0 -18.95721,50.50265 28.522446,39.235759 5.8 0 0 6.77894,14.97302 z"
       id="path4207-4-44-3-9-4"
       inkscape:export-xdpi="360"
       inkscape:export-ydpi="360" />
    <ellipse
       style="display:inline;opacity:1;fill:#fcbe6e;fill-opacity:1;stroke:none;stroke-width:9.25296974;stroke-linecap:round;stroke-linejoin:round;stroke-miterlimit:4;stroke-dasharray:none;stroke-dashoffset:0;stroke-opacity:1"
       id="path4189-8-7-9-2"
       cx="-400.10818"
       cy="-256.80075"
       rx="21.202581"
       ry="22.407274"
       transform="matrix(-0.96944535,0.24530739,-0.24530739,-0.96944535,0,0)"
       inkscape:export-xdpi="360"
       inkscape:export-ydpi="360" />
    <path
       style="display:inline;opacity:1;fill:#fcbe6e;fill-opacity:1;stroke:none;stroke-width:9.19999981;stroke-linecap:round;stroke-linejoin:round;stroke-miterlimit:4;stroke-dasharray:none;stroke-dashoffset:0;stroke-opacity:1"
       id="path4274-4-8-1"
       d="m 452.5169,91.84469 c -0.85661,1.07993 -1.69623,2.16055 -2.36704,3.36746 -0.69853,1.21725 -0.96693,2.57558 -1.20616,3.93779 -0.20374,1.0773 -0.2888,2.17102 -0.33538,3.26483 -0.0362,0.91889 0.22383,1.75217 0.62618,2.56428 0.36992,0.70684 0.93886,1.24293 1.68141,1.52929 0.67013,0.2059 1.37409,0.22028 2.06896,0.22949 0.68134,-7.4e-4 1.36268,-0.004 2.04402,-0.007 0.87835,-0.0374 1.75137,-0.17791 2.63123,-0.23835 0.95621,-0.0606 1.91478,-0.0689 2.87259,-0.0728 1.09339,-0.01 2.17744,0.21432 3.24107,0.44928 1.46762,0.35585 2.88352,0.88758 4.27717,1.4625 1.28413,0.56072 2.39417,1.39631 3.44914,2.30277 0.95206,0.77925 1.69119,1.75278 2.4432,2.71496 0.65239,0.85192 1.26783,1.72312 1.69866,2.70893 0.3221,0.58223 0.52215,1.19994 0.62175,1.85482 0.0402,0.40477 0.024,0.20199 0.0487,0.60832 0,0 -4.1095,2.12029 -4.1095,2.12029 l 0,0 c -0.0156,-0.38501 -0.005,-0.19378 -0.0318,-0.57371 -0.0721,-0.62125 -0.24707,-1.20388 -0.54187,-1.7592 -0.3896,-0.96228 -0.99168,-1.79491 -1.61969,-2.61638 -0.72652,-0.94426 -1.45709,-1.88536 -2.39081,-2.63954 -1.01627,-0.87695 -2.09846,-1.67371 -3.34681,-2.1937 -1.38117,-0.55975 -2.78679,-1.07316 -4.24863,-1.38068 -1.05668,-0.20491 -2.12401,-0.39481 -3.20538,-0.35545 -0.9512,0.0103 -1.90318,0.0222 -2.85192,0.0982 -0.88898,0.0792 -1.7737,0.22855 -2.66782,0.22312 -0.68573,0.004 -1.37168,0.0168 -2.05729,-0.003 -0.7364,-0.0326 -1.47932,-0.0935 -2.16655,-0.38391 -0.79429,-0.40538 -1.41938,-1.00634 -1.83116,-1.80617 -0.44086,-0.8761 -0.74453,-1.77297 -0.74337,-2.76707 0.0554,-1.11557 0.14934,-2.23055 0.3325,-3.33315 0.26933,-1.39346 0.4728,-2.81196 1.17164,-4.07596 0.62352,-1.22374 1.41888,-2.32011 2.27399,-3.39214 0,0 4.23899,-1.83843 4.23899,-1.83843 z"
       inkscape:connector-curvature="0"
       inkscape:export-xdpi="360"
       inkscape:export-ydpi="360" />
    <path
       style="display:inline;opacity:1;fill:#fcbe6e;fill-opacity:1;stroke:none;stroke-width:5.52567911;stroke-linecap:round;stroke-linejoin:round;stroke-miterlimit:4;stroke-dasharray:none;stroke-dashoffset:0;stroke-opacity:1"
       d="m 366.81921,-14.63409 a 48.432705,48.432705 0 0 0 -13.80937,47.19586 48.432705,48.432705 0 0 0 10.4655,19.86994 l 0,0 a 69.312302,80.413597 75.8 0 1 26.35223,-21.194 48.432705,48.432705 0 0 1 1.09894,-10.68464"
       id="path4609"
       inkscape:connector-curvature="0" />
    <path
       style="display:inline;opacity:1;fill:#fc486e;fill-opacity:1;stroke:none;stroke-width:5.52567911;stroke-linecap:round;stroke-linejoin:round;stroke-miterlimit:4;stroke-dasharray:none;stroke-dashoffset:0;stroke-opacity:1"
       d="m 464.14893,133.96993 c 3.89234,-17.94401 16.38524,-30.60174 35.0611,-34.24716 1.3458,-0.33063 2.0442,-1.81514 3.41339,-2.02919 -5.90247,-10.53044 -41.9223,-20.75913 -63.54237,0.19841"
       id="path4607"
       inkscape:connector-curvature="0"
       sodipodi:nodetypes="cccc"
       inkscape:export-xdpi="360"
       inkscape:export-ydpi="360" />
    <path
       style="display:inline;opacity:1;fill:#fcbe6e;fill-opacity:1;stroke:none;stroke-width:5.52567911;stroke-linecap:round;stroke-linejoin:round;stroke-miterlimit:4;stroke-dasharray:none;stroke-dashoffset:0;stroke-opacity:1"
       d="m 395.85066,29.17937 a 28.522446,39.235759 5.8 0 0 -1.29488,27.74599 28.522446,39.235759 5.8 0 0 6.77894,14.97302 45.463954,58.487625 19.154898 0 1 14.93421,-19.47441 28.522446,39.235759 5.8 0 1 0.78813,-11.76571"
       id="path4605"
       inkscape:connector-curvature="0" />
    <path
       style="display:inline;opacity:1;fill:#fc486e;fill-opacity:1;stroke:none;stroke-width:5.52567911;stroke-linecap:round;stroke-linejoin:round;stroke-miterlimit:4;stroke-dasharray:none;stroke-dashoffset:0;stroke-opacity:1"
       d="m 471.23501,137.3408 c 2.41235,-13.50684 10.41584,-24.53883 20.01271,-29.436 0.78523,-0.3911 1.58021,-0.73699 2.38275,-1.03669 -7.28778,-6.59896 -16.65359,-7.91149 -25.27856,-3.54254 -3.39091,10.4849 -7.94861,17.696 -15.78958,21.68258"
       id="path4207-4-44-3-2-5-0"
       inkscape:connector-curvature="0"
       sodipodi:nodetypes="ccccc"
       inkscape:export-xdpi="360"
       inkscape:export-ydpi="360" />
    <path
       style="display:inline;fill:none;fill-rule:evenodd;stroke:#fc486e;stroke-width:6;stroke-linecap:butt;stroke-linejoin:round;stroke-miterlimit:4;stroke-dasharray:none;stroke-opacity:1"
       d="m 439.13977,97.90335 c 0,0 10.18997,11.62208 10.63062,14.1558 4.71694,10.37023 7.28463,22.92998 21.30381,25.38095"
       id="path4613"
       inkscape:connector-curvature="0"
       sodipodi:nodetypes="ccc"
       inkscape:export-xdpi="360"
       inkscape:export-ydpi="360" />
    <rect
       style="opacity:1;fill:#fadc6e;fill-opacity:1;stroke:#fadc6e;stroke-width:4.3;stroke-linecap:round;stroke-linejoin:round;stroke-miterlimit:4;stroke-dasharray:none;stroke-dashoffset:0;stroke-opacity:1"
       id="rect5520"
       width="94.64286"
       height="94.64286"
       x="52.857143"
       y="480.57648"
       inkscape:export-filename="E:\dev\VsCodeThemeGenerator\src\img\js_icon.png"
       inkscape:export-xdpi="360"
       inkscape:export-ydpi="360" />
    <text
       xml:space="preserve"
       style="font-style:normal;font-weight:normal;font-size:72.89224243px;line-height:125%;font-family:sans-serif;letter-spacing:0px;word-spacing:0px;fill:#000000;fill-opacity:1;stroke:none;stroke-width:1px;stroke-linecap:butt;stroke-linejoin:miter;stroke-opacity:1"
       x="60.589607"
       y="553.81244"
       id="text5516"
       sodipodi:linespacing="125%"
       inkscape:export-filename="E:\dev\VsCodeThemeGenerator\src\img\js_icon.png"
       inkscape:export-xdpi="360"
       inkscape:export-ydpi="360"><tspan
         sodipodi:role="line"
         id="tspan5518"
         x="60.589607"
         y="553.81244"
         style="font-style:normal;font-variant:normal;font-weight:normal;font-stretch:normal;font-family:Bahnschrift;-inkscape-font-specification:Bahnschrift">JS</tspan></text>
    <text
       xml:space="preserve"
       style="font-style:normal;font-weight:normal;font-size:40px;line-height:125%;font-family:sans-serif;letter-spacing:0px;word-spacing:0px;fill:#fadc6e;fill-opacity:1;stroke:#fadc6e;stroke-width:1px;stroke-linecap:butt;stroke-linejoin:miter;stroke-opacity:1"
       x="195.71431"
       y="549.14795"
       id="text5534"
       sodipodi:linespacing="125%"
       inkscape:export-filename="E:\dev\VsCodeThemeGenerator\src\img\json_icon.png"
       inkscape:export-xdpi="360"
       inkscape:export-ydpi="360"><tspan
         sodipodi:role="line"
         id="tspan5536"
         x="195.71431"
         y="549.14795"
         style="font-style:normal;font-variant:normal;font-weight:normal;font-stretch:normal;font-size:72.5px;font-family:Bahnschrift;-inkscape-font-specification:Bahnschrift;fill:#fadc6e;fill-opacity:1;stroke:#fadc6e;stroke-opacity:1">{...}</tspan></text>
    <path
       style="fill:#ffffff;fill-opacity:1;fill-rule:evenodd;stroke:#000000;stroke-width:4.44483042;stroke-linecap:butt;stroke-linejoin:round;stroke-miterlimit:4;stroke-dasharray:none;stroke-opacity:1"
       d="m 345.52363,482.04946 27.1849,0 c 4.10375,0 30.01781,0 14.81121,0 l 17.43366,18.02693 0,56.78115 -59.42977,0 z"
       id="path5563"
       inkscape:connector-curvature="0"
       sodipodi:nodetypes="ccccccc"
       inkscape:export-filename="E:\dev\VsCodeThemeGenerator\src\style\icons\file_icon.png"
       inkscape:export-xdpi="360"
       inkscape:export-ydpi="360" />
    <path
       style="fill:#000000;fill-opacity:1;fill-rule:evenodd;stroke:#000000;stroke-width:4.44483042;stroke-linecap:butt;stroke-linejoin:round;stroke-miterlimit:4;stroke-dasharray:none;stroke-opacity:1"
       d="m 385.48783,504.00752 18.71366,-0.028 -18.67858,-21.15896 c -0.0881,7.06078 -0.0351,14.12517 -0.0351,21.18698 z"
       id="path5617"
       inkscape:connector-curvature="0"
       sodipodi:nodetypes="ccccc"
       inkscape:export-filename="E:\dev\VsCodeThemeGenerator\src\style\icons\file_icon.png"
       inkscape:export-xdpi="360"
       inkscape:export-ydpi="360" />
    <path
       style="fill:#ffffff;fill-opacity:1;fill-rule:evenodd;stroke:#000000;stroke-width:4.44483042;stroke-linecap:butt;stroke-linejoin:round;stroke-miterlimit:4;stroke-dasharray:none;stroke-opacity:1"
       d="m 334.8499,493.88508 27.1849,0 c 4.10374,0 30.0178,0 14.81121,0 l 17.43365,18.02693 0,56.78115 -59.42976,0 z"
       id="path5563-3"
       inkscape:connector-curvature="0"
       sodipodi:nodetypes="ccccccc"
       inkscape:export-filename="E:\dev\VsCodeThemeGenerator\src\style\icons\file_icon.png"
       inkscape:export-xdpi="360"
       inkscape:export-ydpi="360" />
    <path
       style="fill:#000000;fill-opacity:1;fill-rule:evenodd;stroke:#000000;stroke-width:4.44483042;stroke-linecap:butt;stroke-linejoin:round;stroke-miterlimit:4;stroke-dasharray:none;stroke-opacity:1"
       d="m 374.8141,515.84314 18.71365,-0.028 -18.67858,-21.15896 c -0.0881,7.06078 -0.0351,14.12517 -0.0351,21.18698 z"
       id="path5617-3"
       inkscape:connector-curvature="0"
       sodipodi:nodetypes="ccccc"
       inkscape:export-filename="E:\dev\VsCodeThemeGenerator\src\style\icons\file_icon.png"
       inkscape:export-xdpi="360"
       inkscape:export-ydpi="360" />
    <path
       style="fill:none;fill-rule:evenodd;stroke:#000000;stroke-width:6;stroke-linecap:butt;stroke-linejoin:round;stroke-miterlimit:4;stroke-dasharray:none;stroke-opacity:1"
       d="m 522.81493,97.603634 48.92857,0 c 7.3861,0 54.02735,0 26.65786,0 l 31.37786,32.445656 0,102.1972 -106.96429,0 z"
       id="path5563-8"
       inkscape:connector-curvature="0"
       sodipodi:nodetypes="ccccccc" />
    <path
       style="fill:none;fill-rule:evenodd;stroke:#000000;stroke-width:6;stroke-linecap:butt;stroke-linejoin:round;stroke-miterlimit:4;stroke-dasharray:none;stroke-opacity:1"
       d="m 585.25501,67.986164 48.92857,0 c 7.3861,0 54.02735,0 26.65786,0 l 31.37786,32.445656 0,102.1972 -106.96429,0 z"
       id="path5563-1-9"
       inkscape:connector-curvature="0"
       sodipodi:nodetypes="ccccccc" />
    <circle
       style="opacity:1;fill:#cecece;fill-opacity:1;stroke:none;stroke-width:8;stroke-linecap:round;stroke-linejoin:round;stroke-miterlimit:4;stroke-dasharray:none;stroke-dashoffset:0;stroke-opacity:1"
       id="path5657"
       cx="-476.16064"
       cy="518.62286"
       r="47.603439"
       inkscape:export-filename="E:\dev\VsCodeThemeGenerator\src\style\icons\smile.png"
       inkscape:export-xdpi="360"
       inkscape:export-ydpi="360"
       transform="scale(-1,1)" />
    <circle
       style="opacity:1;fill:#ffffff;fill-opacity:1;stroke:none;stroke-width:8;stroke-linecap:round;stroke-linejoin:round;stroke-miterlimit:4;stroke-dasharray:none;stroke-dashoffset:0;stroke-opacity:1"
       id="path5659"
       cx="497.05469"
       cy="503.48932"
       r="6.6071429"
       inkscape:export-filename="E:\dev\VsCodeThemeGenerator\src\style\icons\smile.png"
       inkscape:export-xdpi="360"
       inkscape:export-ydpi="360" />
    <circle
       style="opacity:1;fill:#ffffff;fill-opacity:1;stroke:none;stroke-width:8;stroke-linecap:round;stroke-linejoin:round;stroke-miterlimit:4;stroke-dasharray:none;stroke-dashoffset:0;stroke-opacity:1"
       id="path5659-6"
       cx="455.01047"
       cy="503.49829"
       r="6.6071429"
       inkscape:export-filename="E:\dev\VsCodeThemeGenerator\src\style\icons\smile.png"
       inkscape:export-xdpi="360"
       inkscape:export-ydpi="360" />
    <path
       style="fill:none;fill-rule:evenodd;stroke:#ffffff;stroke-width:6;stroke-linecap:butt;stroke-linejoin:round;stroke-miterlimit:4;stroke-dasharray:none;stroke-opacity:1"
       d="m 455.83703,536.79004 c 14.80339,10.17609 26.96814,9.99148 42.07498,0"
       id="path5693"
       inkscape:connector-curvature="0"
       sodipodi:nodetypes="cc"
       inkscape:export-filename="E:\dev\VsCodeThemeGenerator\src\style\icons\smile.png"
       inkscape:export-xdpi="360"
       inkscape:export-ydpi="360" />
  </g>
</svg>
