<?xml version="1.0" standalone="no"?>
<!DOCTYPE svg PUBLIC "-//W3C//DTD SVG 20010904//EN"
 "http://www.w3.org/TR/2001/REC-SVG-20010904/DTD/svg10.dtd">
<svg version="1.0" xmlns="http://www.w3.org/2000/svg"
 width="730.000000pt" height="730.000000pt" viewBox="0 0 730.000000 730.000000"
 preserveAspectRatio="xMidYMid meet">
<metadata>
Created by potrace 1.11, written by Peter Selinger 2001-2013
</metadata>
<g transform="translate(0.000000,730.000000) scale(0.100000,-0.100000)"
fill="#000000" stroke="none">
<path d="M3370 7284 c-748 -90 -1397 -588 -1684 -1290 -262 -641 -188 -1375
197 -1949 74 -110 175 -231 210 -249 27 -15 282 -385 1305 -1896 872 -1287
1280 -1881 1298 -1888 14 -7 34 -12 45 -12 12 0 211 86 442 191 445 200 477
219 477 279 0 17 -392 893 -975 2179 -926 2043 -975 2153 -975 2207 0 74 25
233 57 359 71 284 213 552 392 738 106 110 182 167 319 237 98 50 108 58 119
93 16 47 1 87 -46 131 -17 17 -31 33 -31 38 0 11 177 64 293 88 53 11 108 27
122 36 63 41 86 145 46 211 -38 61 -227 193 -411 287 -359 184 -792 259 -1200
210z m-883 -887 c171 -212 187 -239 289 -483 165 -393 234 -515 374 -655 121
-122 269 -204 433 -240 l58 -12 -6 -36 c-4 -24 1 -56 14 -94 77 -222 65 -499
-29 -695 -116 -241 -299 -397 -545 -463 -122 -33 -300 -31 -418 5 -203 61
-327 149 -489 349 -228 280 -342 504 -405 796 -34 160 -43 471 -19 641 58 397
216 734 485 1039 l65 74 48 -52 c26 -28 91 -106 145 -174z"/>
</g>
</svg>
